<?xml version="1.0" encoding="UTF-8"?>
<svg version="1.1" xmlns="http://www.w3.org/2000/svg" width="1446" height="1500">
<path d="M0,0 L1446,0 L1446,1500 L0,1500 Z M508,200 L508,222 L510,224 L512,219 L517,214 L516,208 L518,207 L516,207 L515,201 Z M553,220 L553,221 L566,221 L566,220 Z M714,221 Z M800,221 L800,222 L805,222 L805,221 Z M807,219 L806,222 L870,223 L870,243 L869,307 L869,377 L852,377 L852,349 L849,349 L845,353 L840,351 L832,347 L831,348 L829,345 L825,346 L826,350 L828,351 L808,361 L798,366 L775,366 L775,365 L768,365 L765,366 L737,353 L735,351 L730,352 L727,354 L723,354 L717,344 L719,342 L723,343 L726,348 L728,348 L726,342 L728,340 L729,341 L734,341 L735,338 L733,337 L737,333 L737,329 L734,328 L731,323 L727,313 L726,317 L730,329 L730,332 L726,322 L722,308 L722,296 L723,291 L724,308 L726,310 L727,305 L727,299 L728,295 L727,291 L730,290 L730,284 L732,284 L733,281 L730,281 L732,276 L728,273 L725,273 L723,269 L716,262 L717,261 L722,260 L726,255 L727,253 L732,255 L732,258 L728,259 L728,261 L731,261 L732,264 L727,265 L729,269 L733,272 L737,271 L742,264 L740,260 L739,258 L744,256 L747,250 L747,248 L752,246 L762,239 L773,237 L773,235 L778,234 L777,231 L772,229 L758,228 L762,227 L764,227 L764,225 L735,224 L731,226 L731,224 L724,223 L710,223 L707,228 L687,232 L666,235 L660,237 L664,243 L669,248 L672,251 L676,250 L681,244 L686,248 L691,253 L693,253 L691,249 L685,243 L683,243 L683,241 L688,244 L694,251 L693,255 L686,263 L687,268 L691,278 L698,299 L695,299 L693,302 L693,305 L695,305 L695,303 L698,304 L687,336 L689,340 L696,346 L698,346 L693,355 L690,358 L685,357 L680,353 L673,352 L663,360 L651,366 L635,371 L626,369 L602,360 L597,358 L592,362 L588,366 L582,366 L582,364 L578,360 L578,353 L585,346 L584,341 L581,337 L571,308 L571,300 L581,269 L583,265 L576,260 L568,259 L566,259 L564,267 L563,323 L563,355 L564,375 L557,375 L553,373 L549,370 L549,359 L553,356 L553,354 L549,353 L549,351 L552,352 L554,349 L553,338 L552,335 L551,334 L550,332 L548,333 L546,321 L549,322 L550,320 L547,315 L547,276 L546,244 L546,220 L540,220 L540,227 L539,228 L537,256 L537,281 L538,291 L535,292 L537,293 L536,296 L535,338 L534,341 L535,343 L533,343 L533,345 L530,346 L535,349 L534,353 L535,354 L536,366 L533,366 L533,368 L535,368 L535,378 L531,380 L537,380 L537,383 L553,384 L484,387 L478,386 L477,384 L459,384 L456,383 L454,388 L453,395 L456,395 L456,500 L454,500 L452,505 L448,504 L448,511 L452,513 L452,511 L455,511 L455,518 L453,519 L453,525 L456,526 L483,527 L456,527 L456,529 L441,530 L441,537 L448,538 L448,555 L444,556 L445,562 L445,571 L444,576 L261,576 L252,575 L200,575 L200,576 L176,577 L175,578 L175,617 L174,619 L174,652 L175,652 L175,734 L176,749 L174,749 L174,751 L169,749 L164,749 L155,754 L155,752 L153,752 L152,754 L148,755 L129,759 L129,761 L121,761 L104,764 L102,765 L101,793 L98,794 L97,798 L101,797 L102,879 L102,902 L103,923 L101,923 L101,925 L103,925 L102,946 L101,950 L102,973 L104,984 L104,1166 L103,1241 L101,1314 L99,1315 L99,1321 L96,1323 L100,1323 L99,1329 L102,1340 L107,1341 L102,1353 L97,1357 L97,1360 L94,1361 L97,1364 L101,1364 L98,1368 L103,1370 L104,1375 L110,1374 L111,1377 L116,1377 L116,1383 L119,1384 L124,1390 L126,1393 L122,1395 L153,1396 L156,1397 L164,1397 L164,1400 L159,1400 L158,1403 L140,1404 L136,1406 L142,1407 L143,1406 L146,1408 L159,1406 L159,1408 L168,1408 L170,1409 L176,1409 L179,1407 L179,1409 L177,1410 L193,1411 L202,1410 L206,1411 L205,1413 L210,1412 L210,1409 L220,1409 L229,1411 L257,1411 L256,1413 L260,1413 L261,1411 L280,1411 L278,1412 L268,1413 L259,1416 L259,1419 L257,1420 L256,1425 L259,1428 L253,1429 L250,1435 L246,1438 L250,1439 L250,1443 L253,1443 L253,1441 L261,1439 L261,1443 L265,1442 L264,1440 L271,1441 L272,1439 L274,1439 L274,1443 L282,1443 L283,1439 L287,1439 L288,1441 L288,1439 L296,1439 L297,1434 L301,1433 L301,1430 L312,1429 L319,1430 L321,1433 L321,1436 L337,1435 L340,1435 L341,1439 L343,1439 L343,1437 L345,1437 L345,1435 L347,1435 L347,1433 L349,1433 L350,1437 L357,1438 L357,1440 L359,1440 L359,1443 L367,1444 L367,1442 L373,1441 L372,1436 L375,1437 L376,1439 L385,1439 L385,1442 L392,1442 L397,1444 L397,1442 L395,1442 L395,1437 L393,1437 L394,1432 L395,1434 L400,1434 L400,1436 L404,1435 L406,1434 L411,1435 L410,1432 L417,1432 L417,1435 L422,1435 L424,1438 L427,1437 L428,1434 L430,1433 L430,1424 L434,1422 L434,1418 L440,1418 L437,1416 L412,1416 L395,1414 L387,1414 L381,1413 L376,1412 L370,1414 L353,1412 L348,1413 L346,1414 L347,1411 L338,1412 L338,1410 L356,1410 L383,1412 L429,1414 L491,1418 L506,1418 L506,1420 L491,1419 L469,1419 L463,1418 L448,1418 L449,1420 L465,1421 L480,1422 L544,1422 L544,1420 L527,1420 L511,1419 L570,1420 L598,1421 L607,1423 L613,1423 L615,1421 L624,1421 L633,1422 L636,1421 L636,1419 L651,1422 L677,1422 L687,1419 L694,1415 L694,1417 L690,1419 L689,1421 L683,1422 L684,1424 L704,1425 L713,1424 L714,1423 L720,1423 L729,1425 L778,1426 L792,1426 L802,1425 L802,1423 L814,1425 L817,1424 L818,1425 L825,1425 L826,1427 L831,1426 L836,1426 L839,1426 L851,1427 L855,1428 L860,1427 L902,1427 L911,1428 L988,1428 L992,1427 L994,1428 L1010,1428 L1012,1427 L1042,1427 L1042,1425 L1070,1423 L1077,1423 L1080,1424 L1099,1426 L1120,1426 L1157,1425 L1170,1424 L1186,1424 L1198,1425 L1168,1425 L1151,1427 L1151,1428 L1173,1428 L1198,1429 L1262,1429 L1259,1427 L1253,1427 L1270,1423 L1284,1416 L1289,1412 L1288,1409 L1283,1408 L1281,1407 L1281,1400 L1284,1401 L1285,1405 L1285,1403 L1290,1403 L1288,1408 L1292,1406 L1294,1401 L1293,1394 L1290,1392 L1286,1392 L1286,1385 L1292,1384 L1288,1380 L1285,1371 L1283,1368 L1281,1368 L1280,1364 L1270,1362 L1270,1360 L1276,1361 L1281,1360 L1279,1356 L1271,1358 L1264,1355 L1256,1353 L1254,1352 L1230,1352 L1226,1351 L1323,1351 L1324,1349 L1324,1343 L1330,1345 L1333,1344 L1336,1345 L1335,1347 L1343,1348 L1339,1336 L1337,1327 L1336,1310 L1335,1306 L1326,1305 L1327,1304 L1338,1303 L1343,1295 L1339,1293 L1327,1290 L1328,1288 L1334,1289 L1335,1287 L1342,1286 L1344,1283 L1343,1281 L1350,1280 L1351,1283 L1353,1283 L1353,1280 L1359,1279 L1353,1272 L1351,1267 L1349,1267 L1348,1257 L1343,1251 L1341,1251 L1340,1248 L1335,1248 L1333,1253 L1329,1252 L1327,1253 L1327,1148 L1329,1148 L1331,1143 L1334,1143 L1333,1140 L1334,1136 L1330,1137 L1327,1138 L1326,1133 L1330,1134 L1329,1131 L1326,1131 L1326,1120 L1331,1120 L1332,1117 L1326,1118 L1326,1053 L1330,1053 L1331,1051 L1333,1051 L1332,1046 L1326,1047 L1328,1027 L1331,1027 L1330,1024 L1326,1025 L1327,1022 L1330,1020 L1332,1021 L1332,1013 L1331,1009 L1331,1006 L1329,1005 L1330,1003 L1329,1001 L1327,1001 L1327,960 L1328,958 L1327,951 L1327,942 L1329,938 L1329,935 L1327,935 L1327,928 L1326,926 L1328,926 L1328,913 L1327,908 L1331,907 L1328,906 L1327,898 L1330,897 L1327,896 L1328,882 L1327,875 L1330,874 L1328,873 L1329,870 L1328,869 L1328,849 L1329,846 L1328,844 L1328,817 L1331,820 L1334,819 L1332,818 L1331,815 L1328,815 L1328,802 L1329,800 L1327,790 L1330,789 L1329,769 L1323,767 L1319,767 L1317,762 L1314,763 L1311,763 L1307,762 L1257,762 L1256,757 L1259,757 L1259,754 L1256,754 L1256,752 L1259,752 L1259,745 L1256,745 L1257,742 L1259,741 L1259,736 L1256,733 L1259,733 L1259,727 L1256,727 L1258,722 L1256,722 L1257,698 L1258,686 L1256,686 L1258,682 L1259,672 L1259,653 L1259,650 L1259,629 L1257,625 L1259,625 L1259,568 L1161,568 L1161,571 L1156,571 L1154,568 L1151,568 L1152,573 L1151,572 L1150,574 L1144,570 L1143,568 L1125,568 L1127,575 L1129,576 L1119,577 L1121,573 L1124,572 L1123,569 L1113,568 L1099,568 L1099,577 L1096,577 L1097,574 L1088,575 L1089,573 L1092,572 L1094,570 L1097,572 L1096,568 L1053,568 L1050,570 L1047,568 L1043,570 L1043,568 L1041,569 L1039,569 L1035,570 L1031,569 L1028,570 L1022,568 L1018,569 L1019,575 L1015,573 L1013,569 L1017,568 L1007,568 L1007,574 L1012,577 L1009,578 L1008,575 L1007,578 L987,578 L987,576 L989,576 L991,568 L987,569 L986,573 L983,574 L986,574 L986,577 L979,576 L980,566 L980,538 L979,530 L977,528 L925,528 L903,529 L886,533 L878,535 L878,537 L896,538 L891,539 L883,538 L883,540 L880,539 L877,539 L861,539 L857,540 L850,540 L844,539 L842,541 L835,539 L832,540 L818,539 L802,539 L798,539 L792,538 L785,540 L784,538 L779,539 L762,539 L757,541 L748,543 L747,537 L789,537 L793,535 L774,529 L768,528 L649,528 L635,531 L622,535 L622,536 L644,537 L675,537 L679,536 L678,552 L675,549 L665,544 L641,541 L589,541 L576,542 L565,542 L554,541 L477,541 L475,542 L460,544 L457,546 L456,536 L534,536 L534,534 L526,532 L522,532 L521,529 L505,527 L705,527 L708,525 L709,519 L709,396 L709,392 L709,386 L679,385 L745,385 L710,386 L710,393 L712,396 L711,397 L710,416 L710,527 L739,527 L740,522 L743,525 L753,526 L771,527 L846,527 L908,528 L964,527 L965,518 L965,459 L966,437 L971,437 L972,432 L978,433 L987,431 L988,430 L988,380 L976,380 L972,385 L973,388 L974,391 L971,390 L967,394 L966,391 L966,386 L962,385 L942,385 L943,383 L938,382 L938,380 L930,380 L926,382 L913,382 L914,380 L893,380 L886,381 L885,382 L880,382 L883,380 L882,377 L878,377 L879,374 L882,373 L882,369 L878,370 L878,353 L881,353 L882,356 L881,350 L882,349 L882,315 L880,313 L879,309 L880,306 L878,306 L879,298 L882,297 L882,281 L879,281 L881,278 L882,278 L882,265 L879,265 L879,245 L882,245 L881,241 L879,242 L879,240 L882,240 L882,219 Z M765,225 Z M767,226 Z M780,233 L781,235 L782,233 Z M784,233 L784,235 L786,235 L786,233 Z M793,233 Z M798,233 Z M795,234 L797,236 L797,234 Z M799,234 L799,238 L822,250 L823,251 L828,251 L829,244 L826,242 L819,243 L817,239 L814,238 L803,234 L800,236 Z M808,235 Z M764,247 Z M760,248 L758,251 L763,249 Z M777,249 L773,251 L773,253 L769,251 L766,252 L768,253 L768,255 L765,256 L765,252 L760,254 L749,261 L744,267 L746,267 L746,270 L742,271 L737,276 L736,278 L740,279 L741,281 L736,283 L736,285 L739,286 L740,283 L743,282 L743,280 L748,279 L749,277 L752,276 L752,274 L757,273 L758,271 L761,270 L761,268 L766,267 L767,265 L770,264 L770,262 L775,260 L779,258 L779,256 L784,254 L788,253 L788,250 L782,251 L780,249 Z M680,252 L679,256 L683,254 L682,252 Z M755,252 Z M793,252 L792,254 L795,254 L795,252 Z M822,253 L822,258 L827,255 L825,253 Z M789,254 L789,256 L784,258 L783,260 L788,258 L792,254 Z M654,255 L655,257 L656,255 Z M750,255 Z M801,254 L799,256 L802,256 Z M656,256 L658,257 L659,260 L663,258 L659,256 Z M749,256 Z M797,256 L795,259 L799,257 Z M747,257 L745,258 L745,260 L749,259 L749,257 Z M832,257 Z M804,258 L803,260 L806,259 Z M792,259 L792,261 L795,260 Z M663,260 L662,264 L665,262 L665,260 Z M744,260 Z M781,260 L774,265 L776,266 L782,263 L783,260 Z M802,260 Z M790,261 Z M800,261 Z M810,261 L809,263 L812,262 Z M730,262 Z M743,262 Z M788,262 L787,264 L790,263 Z M799,262 Z M797,263 Z M807,263 L806,265 L809,264 Z M667,264 L666,268 L669,269 L670,272 L675,271 L673,276 L674,278 L677,279 L677,284 L680,286 L680,292 L684,293 L682,299 L685,298 L685,294 L688,293 L686,293 L687,287 L684,286 L685,280 L682,277 L681,272 L674,268 L669,267 L669,264 Z M785,264 L781,268 L786,266 L787,264 Z M795,264 L793,267 L797,265 Z M804,265 Z M771,266 L771,268 L766,270 L765,272 L770,270 L774,266 Z M802,266 L801,268 L804,268 L804,266 Z M813,266 Z M841,266 L836,268 L835,272 L841,283 L842,297 L842,320 L840,325 L840,328 L835,326 L831,327 L832,329 L841,332 L852,335 L853,289 L853,279 L852,268 L847,266 Z M552,267 L552,271 L554,271 L554,267 Z M683,267 L685,273 L689,282 L691,288 L692,285 L687,270 L685,267 Z M791,267 L790,269 L793,268 Z M811,267 L807,271 L812,269 L813,267 Z M779,268 L772,273 L774,274 L781,269 Z M800,268 Z M788,269 Z M798,269 L797,271 L800,270 Z M741,270 Z M786,270 L784,273 L788,272 L788,270 Z M795,271 L788,276 L791,276 L797,272 Z M805,271 L804,273 L807,272 Z M817,270 L815,272 L818,272 Z M829,271 L829,273 L831,273 L831,271 Z M762,272 L762,274 L757,276 L756,278 L760,277 L765,272 Z M814,272 Z M782,273 L781,275 L784,274 Z M803,273 Z M812,273 L811,275 L814,274 Z M770,274 L769,276 L772,275 Z M801,274 L798,277 L803,275 Z M779,275 Z M809,275 L808,277 L811,276 Z M819,275 Z M832,275 Z M864,275 L865,277 Z M733,276 L732,278 L734,278 Z M768,276 Z M777,276 L775,279 L779,279 L779,276 Z M818,276 Z M765,277 L765,279 L768,278 Z M786,277 Z M796,277 L795,279 L798,278 Z M806,277 L805,279 L808,278 Z M816,277 L815,279 L818,278 Z M753,278 L753,280 L756,279 Z M763,279 Z M773,279 L767,283 L770,284 L770,282 L775,280 Z M785,278 L780,280 L780,282 L775,284 L770,289 L773,289 L773,287 L778,285 L782,283 L782,281 L786,280 Z M793,279 L786,284 L789,285 L789,283 L794,281 L795,279 Z M803,279 L802,281 L805,280 Z M814,279 Z M751,280 L747,284 L752,282 L753,280 Z M761,280 L760,282 L763,281 Z M812,280 Z M800,281 L799,283 L802,282 Z M811,281 Z M821,281 Z M743,282 Z M758,282 L754,286 L759,284 L760,282 Z M809,282 Z M819,282 Z M797,283 L796,285 L799,284 Z M807,283 L806,285 L809,284 Z M818,283 Z M744,284 L744,286 L747,285 Z M765,284 L758,289 L761,290 L761,288 L766,286 L767,284 Z M816,284 Z M783,285 L783,287 L781,288 L785,287 L786,285 Z M794,285 L793,287 L796,286 Z M805,285 Z M815,285 Z M739,286 Z M742,286 L738,290 L742,290 L744,286 Z M752,286 L751,288 L754,287 Z M803,286 L802,288 L805,287 Z M813,286 Z M791,287 L790,289 L793,288 Z M812,287 Z M750,288 Z M779,288 L765,297 L765,299 L770,297 L781,290 L781,288 Z M800,288 Z M810,288 Z M748,289 L747,291 L749,291 Z M767,289 L758,295 L758,297 L756,298 L760,297 L770,290 Z M788,289 L784,293 L789,291 L790,289 Z M798,289 L797,291 L800,290 Z M809,289 Z M819,289 Z M737,290 Z M756,290 L754,293 L758,291 Z M807,290 Z M817,290 Z M736,291 Z M745,291 Z M795,291 L788,296 L791,297 L791,295 L796,293 L797,291 Z M806,291 Z M816,291 Z M743,292 L742,294 L745,293 Z M804,292 Z M814,292 Z M752,293 Z M782,293 L781,295 L784,294 Z M803,293 Z M813,293 Z M823,293 Z M740,294 Z M750,294 L749,296 L752,295 Z M801,294 L798,297 L803,295 Z M811,294 Z M779,295 L772,300 L775,300 L781,296 Z M810,295 Z M739,295 L737,297 L740,297 Z M748,296 Z M808,296 Z M746,297 Z M786,297 L773,306 L775,307 L782,303 L782,301 L787,299 L788,297 Z M796,297 L795,299 L798,299 L798,297 Z M807,297 Z M745,298 Z M754,298 L753,300 L756,299 Z M805,298 Z M743,299 Z M763,299 L760,302 L765,300 Z M793,299 L786,304 L789,305 L789,303 L794,301 L795,299 Z M804,299 Z M814,299 Z M880,299 L881,302 L882,299 Z M741,300 L740,302 L743,301 Z M752,300 Z M802,300 Z M812,300 Z M572,301 L571,304 L575,304 L575,302 Z M750,301 Z M770,301 L766,305 L771,303 L772,301 Z M800,301 L798,304 L802,302 Z M811,301 Z M739,302 Z M749,302 Z M759,302 Z M809,302 Z M747,303 Z M757,303 L756,305 L758,305 Z M808,303 Z M746,304 Z M796,304 L795,306 L798,305 Z M807,304 Z M745,305 Z M754,305 Z M764,305 L763,307 L766,306 Z M783,305 L783,307 L779,309 L777,311 L781,310 L786,305 Z M805,305 Z M815,305 Z M743,306 Z M753,306 Z M793,306 Z M803,306 Z M813,306 Z M741,307 Z M751,307 L750,309 L753,308 Z M761,307 Z M771,307 L770,309 L773,309 L773,307 Z M791,307 L790,309 L793,308 Z M802,307 Z M812,307 Z M760,308 L759,310 L761,310 Z M800,308 Z M810,308 L809,310 L811,310 Z M748,309 L747,311 L750,310 Z M768,309 L764,313 L769,311 L770,309 Z M789,309 Z M798,309 L796,312 L800,310 Z M757,310 Z M786,310 L787,312 L789,310 Z M807,310 Z M745,311 Z M755,311 L754,313 L757,312 Z M775,311 L773,314 L777,312 Z M806,311 Z M744,312 Z M784,312 Z M794,312 L793,314 L796,313 Z M804,312 Z M752,313 Z M763,313 Z M782,313 L781,315 L784,314 Z M803,313 Z M751,314 Z M761,314 Z M771,314 Z M791,314 Z M801,314 L800,316 L803,315 Z M811,314 Z M749,315 Z M760,315 Z M770,315 Z M780,315 Z M789,315 L790,317 L791,315 Z M810,315 Z M748,316 Z M758,316 Z M768,316 Z M778,316 L777,318 L780,317 Z M798,316 Z M757,317 Z M766,317 L765,319 L768,318 Z M787,317 Z M797,317 Z M807,317 Z M817,317 Z M755,318 Z M775,318 Z M785,318 L784,320 L787,319 Z M796,318 Z M806,318 Z M763,319 L762,321 L765,320 Z M774,319 Z M794,319 Z M814,319 Z M752,320 Z M773,320 Z M782,320 Z M792,320 Z M803,320 Z M813,320 Z M751,321 Z M771,321 Z M781,321 Z M791,321 Z M801,321 Z M759,322 Z M780,322 Z M790,322 Z M809,322 Z M758,323 Z M778,323 Z M788,323 Z M552,324 L552,328 L555,327 Z M766,324 Z M776,324 Z M755,325 Z M765,325 Z M775,325 Z M785,325 Z M795,325 Z M805,325 Z M773,326 Z M783,326 Z M762,327 Z M772,327 Z M792,327 Z M864,327 L863,329 L865,329 Z M760,328 Z M781,328 Z M769,329 Z M779,329 Z M799,329 Z M757,330 Z M777,330 Z M807,330 Z M776,331 Z M796,331 Z M680,332 Z M764,332 Z M773,333 Z M783,333 Z M803,333 Z M772,334 Z M791,334 Z M837,334 L835,337 L840,336 L839,334 Z M735,335 L735,338 L737,338 L738,335 Z M770,335 Z M780,335 Z M769,336 Z M798,336 Z M767,337 Z M787,337 Z M797,337 Z M839,337 L839,339 L841,339 L841,337 Z M739,338 Z M775,338 Z M805,338 Z M593,339 Z M738,339 L738,342 Z M774,339 Z M794,339 Z M783,340 Z M681,341 L682,346 L686,344 L685,341 Z M736,341 Z M771,341 Z M781,341 Z M801,341 Z M730,342 Z M770,342 Z M789,342 Z M743,343 L743,347 L750,353 L760,359 L774,363 L794,363 L808,358 L817,352 L815,351 L808,355 L801,356 L787,359 L773,358 L759,353 L748,346 L746,343 Z M788,343 Z M798,343 Z M796,344 Z M785,345 Z M601,347 Z M782,347 Z M792,347 Z M589,348 L590,351 L592,351 L592,348 Z M728,348 L728,351 L730,351 L729,348 Z M738,348 L737,352 L748,357 L751,356 L746,352 L744,352 L743,349 Z M814,349 Z M817,350 Z M588,351 Z M751,357 Z M755,359 Z M764,363 L765,365 L767,365 L767,363 Z M796,364 Z M633,368 Z M561,372 Z M949,380 L949,382 L951,382 L951,380 Z M962,381 L962,383 L964,383 L964,381 Z M958,382 L959,384 Z M1005,568 Z M1328,921 Z M1284,1356 L1282,1361 L1284,1367 L1289,1366 L1285,1364 L1285,1357 L1292,1357 L1292,1356 Z M1330,1356 Z M1299,1357 Z M1321,1357 Z M1308,1358 Z M1313,1358 Z M1289,1366 Z M1291,1367 Z M1294,1368 L1295,1370 Z M1296,1381 Z M1296,1383 L1293,1385 L1295,1385 L1296,1387 L1298,1385 Z M1296,1387 Z M131,1406 L135,1408 L137,1407 L136,1406 Z M457,1416 L458,1418 L459,1416 Z M441,1418 L441,1419 L447,1419 L447,1418 Z M545,1420 L549,1422 L559,1422 L559,1420 Z M688,1420 Z M561,1421 L561,1422 L571,1423 L568,1421 Z M571,1421 L573,1423 L577,1422 Z M578,1421 Z M581,1421 Z M587,1421 L587,1422 L592,1422 L592,1421 Z M595,1421 L596,1423 L604,1423 L604,1422 Z M584,1422 Z M616,1422 L616,1423 L622,1423 L622,1422 Z " fill="#000000" transform="translate(0,0)"/>
<path d="M0,0 L4,1 L2,5 L-1,7 L-4,7 L-4,9 L-9,10 L-10,13 L-15,16 L-18,16 L-19,19 L-23,18 L-23,15 L-17,11 L-15,11 L-12,8 L-8,5 L-5,5 L-5,3 L-2,2 L-1,1 Z M-19,15 Z " fill="#000000" transform="translate(777,251)"/>
<path d="M0,0 L4,1 L3,4 L-1,3 Z " fill="#000000" transform="translate(752,261)"/>
<path d="M0,0 L4,2 L2,5 L-1,5 L-2,2 Z " fill="#000000" transform="translate(751,268)"/>
<path d="M0,0 L3,2 L3,4 L-1,5 L-1,1 Z " fill="#000000" transform="translate(747,271)"/>
<path d="M0,0 L5,1 L3,4 L-1,2 Z " fill="#000000" transform="translate(741,275)"/>
<path d="M0,0 L3,4 L6,10 L3,10 L0,3 Z " fill="#000000" transform="translate(723,324)"/>
<path d="M0,0 L50,0 L70,1 L88,1 L114,2 L126,3 L134,6 L132,8 L126,8 L119,11 L108,15 L109,16 L146,18 L146,24 L144,20 L144,26 L149,28 L152,31 L155,30 L155,64 L152,64 L153,59 L149,61 L147,70 L154,70 L156,71 L155,117 L152,117 L146,117 L145,122 L145,124 L137,125 L102,126 L101,128 L-18,128 L-20,126 L-24,125 L-42,124 L-51,124 L-56,123 L-57,116 L-63,116 L-65,121 L-66,121 L-67,70 L-57,70 L-57,68 L-66,68 L-66,29 L-64,25 L-62,28 L-55,28 L-54,22 L-55,18 L-31,15 L-44,9 L-49,7 L-63,5 L-67,2 L-57,2 L-57,4 L-47,3 L-19,3 L-19,1 Z M42,18 L41,23 L42,24 L-12,24 L-47,25 L-51,25 L-53,27 L-48,28 L-33,28 L10,27 L65,27 L109,28 L131,28 L130,26 L48,24 L49,19 Z M133,26 L134,28 Z M140,26 L138,28 L143,28 Z M-11,28 L-11,43 L-9,41 L-9,28 Z M149,39 Z M151,39 L152,42 L154,41 Z M-11,44 L-11,49 L-9,49 L-9,44 Z M149,58 Z M153,58 Z M-10,64 L-9,66 Z M41,67 L42,70 L43,67 Z M-10,68 L-9,70 Z M-11,70 Z M41,71 L41,76 L42,76 L42,71 Z M41,82 L41,89 L42,89 L42,82 Z M41,91 L40,102 L25,101 L-2,105 L-10,109 L-10,95 L-18,96 L-31,100 L-47,108 L-51,110 L-51,112 L123,112 L120,109 L115,106 L111,108 L102,107 L98,108 L98,110 L92,108 L83,102 L81,102 L79,107 L67,107 L67,105 L49,107 L43,108 L42,91 Z M95,98 L95,104 L96,104 L96,98 Z M-49,105 Z M-50,106 Z M-51,107 Z M129,107 Z M134,107 Z M133,108 Z M135,108 L135,110 L137,109 Z M131,109 L130,111 L133,111 L133,109 Z M44,115 L41,118 L42,121 L44,121 L44,117 L46,117 L46,122 L49,120 L48,116 Z " fill="#000000" transform="translate(538,390)"/>
<path d="M0,0 L3,0 L3,2 L18,2 L47,1 L90,1 L107,2 L124,2 L169,4 L177,5 L174,8 L167,10 L164,9 L164,12 L155,16 L157,17 L184,19 L182,24 L179,22 L179,24 L183,27 L113,26 L98,25 L98,20 L94,19 L92,20 L91,25 L15,26 L13,27 L107,27 L163,28 L191,29 L195,31 L197,44 L202,41 L205,41 L205,68 L200,67 L196,68 L196,72 L202,71 L205,72 L205,91 L204,123 L203,123 L203,117 L196,118 L193,125 L191,126 L150,127 L153,129 L101,129 L46,128 L45,127 L45,128 L39,129 L28,129 L28,127 L13,125 L-15,124 L-17,123 L-18,107 L-19,70 L-8,70 L-11,67 L-18,68 L-17,36 L-16,28 L-15,32 L-11,34 L-9,29 L-7,28 L-5,23 L-6,20 L-5,18 L19,16 L19,14 L14,13 L-4,5 L-2,1 Z M176,23 L177,25 Z M40,29 Z M-15,33 Z M201,63 Z M93,68 L92,71 L95,71 L95,68 Z M40,69 L40,72 L43,71 L43,69 Z M40,78 L41,82 Z M40,89 L39,94 L39,102 L34,103 L26,108 L16,110 L16,111 L28,112 L105,112 L107,110 L96,109 L94,102 L69,103 L57,105 L49,105 L46,107 L42,109 L42,97 L41,89 Z M-1,105 L-3,109 L0,107 Z M-4,109 Z M146,98 L145,110 L108,110 L108,111 L114,112 L149,112 L147,98 Z M152,111 L154,113 L158,112 L157,111 Z M159,112 L159,113 L167,113 L167,112 Z M-13,114 L-16,116 L-16,122 L-15,123 L-9,123 L-7,121 L-7,116 L-10,114 Z M190,115 Z M91,116 L89,121 L92,122 L92,118 L94,118 L94,121 L97,120 L95,116 Z M-6,118 L-6,120 L-3,119 Z M192,120 L193,124 Z " fill="#000000" transform="translate(744,390)"/>
<path d="M0,0 L15,0 L15,1 L1,2 Z " fill="#000000" transform="translate(683,393)"/>
<path d="M0,0 L16,0 L15,2 L1,2 Z " fill="#000000" transform="translate(723,393)"/>
<path d="M0,0 L3,1 L2,7 L-3,7 L-1,1 Z " fill="#000000" transform="translate(931,410)"/>
<path d="M0,0 L41,0 L42,1 L42,87 L41,110 L16,110 L-8,109 L-9,104 L-9,78 L-10,6 L-9,1 Z " fill="#000000" transform="translate(697,536)"/>
<path d="M0,0 L73,0 L73,21 L71,25 L70,24 L68,14 L60,9 L46,6 L44,5 L33,5 L25,4 L21,4 L12,3 L3,2 L3,4 L-1,3 Z M30,2 Z " fill="#000000" transform="translate(898,537)"/>
<path d="M0,0 L7,0 L26,9 L46,18 L47,20 L45,22 L33,16 L34,17 L45,24 L50,27 L50,29 L54,30 L52,26 L55,25 L60,31 L64,30 L68,27 L71,27 L77,35 L80,38 L73,44 L73,49 L81,60 L83,67 L87,99 L87,107 L83,107 L82,115 L87,115 L77,138 L71,151 L76,153 L83,158 L82,162 L75,171 L70,170 L65,167 L58,167 L48,174 L33,185 L31,185 L30,183 L23,184 L24,188 L27,190 L-2,194 L-11,195 L-25,195 L-42,188 L-57,181 L-68,176 L-65,174 L-63,174 L-65,169 L-59,170 L-59,168 L-64,166 L-67,166 L-68,168 L-70,168 L-72,172 L-76,168 L-76,166 L-82,165 L-90,170 L-94,168 L-99,162 L-100,158 L-92,151 L-92,146 L-99,135 L-102,114 L-105,91 L-105,86 L-100,86 L-98,81 L-103,79 L-101,73 L-94,56 L-94,51 L-101,46 L-103,40 L-97,29 L-94,29 L-85,34 L-81,33 L-62,19 L-49,9 L-47,10 L-47,12 L-40,11 L-39,5 Z M-19,11 Z M-5,11 Z M0,11 Z M8,12 Z M-27,13 Z M11,13 L12,15 L14,15 L14,13 Z M-36,15 Z M19,15 L20,17 Z M-37,16 Z M-18,16 L-22,19 L-26,17 L-27,20 L-23,21 L-20,22 L-19,20 L-12,21 L-11,19 L-8,19 L-7,21 L-3,20 L-3,17 L-11,16 L-14,18 L-16,18 L-16,16 Z M-3,16 Z M0,17 L0,21 L5,22 L10,25 L16,24 L18,27 L22,27 L23,30 L26,31 L29,34 L31,34 L31,36 L35,37 L35,40 L42,44 L44,47 L47,48 L49,51 L51,52 L51,55 L55,55 L55,59 L60,59 L60,62 L58,62 L58,65 L60,65 L63,62 L65,61 L64,58 L61,57 L59,53 L56,52 L58,48 L51,42 L48,39 L46,39 L46,36 L43,35 L42,32 L38,31 L37,29 L28,24 L25,23 L24,25 L22,25 L21,21 L16,22 L16,20 L12,18 L5,19 L4,17 Z M24,17 L24,19 L26,18 Z M-34,19 L-37,21 L-39,22 L-37,25 L-32,21 L-30,21 L-30,23 L-28,23 L-27,20 Z M27,19 L27,21 L31,22 L31,20 Z M-47,20 Z M-3,21 Z M-1,21 Z M-43,22 Z M34,22 L33,24 L35,24 Z M-45,23 L-47,27 L-42,26 L-43,23 Z M39,25 L38,27 L40,27 Z M-51,26 L-48,29 L-47,27 Z M-56,29 L-56,31 L-53,30 Z M42,29 L42,31 L45,30 Z M-57,31 Z M47,32 L47,34 L49,34 L49,32 Z M-58,32 L-60,33 L-60,35 L-57,34 Z M56,33 Z M67,34 L67,36 L70,37 L70,34 Z M-82,35 L-81,37 L-79,36 Z M51,36 L50,38 L53,38 L53,36 Z M-91,37 L-91,41 L-87,40 L-88,37 Z M-79,37 Z M-63,37 Z M67,37 Z M68,49 L68,54 L72,58 L74,58 L72,51 Z M67,52 Z M65,54 L66,56 L67,54 Z M66,57 L67,61 L69,61 L69,58 Z M54,59 Z M65,63 L62,66 L62,69 L65,70 L66,74 L69,71 L66,68 L67,63 Z M61,65 Z M70,65 Z M72,68 Z M73,70 L72,72 L74,72 Z M69,76 L67,80 L70,79 Z M75,77 Z M-22,126 Z M-72,135 Z M-83,144 L-80,146 L-80,144 Z M-67,144 L-66,147 L-64,147 L-65,144 Z M64,145 L67,148 L69,147 L67,145 Z M-80,146 Z M-79,147 L-78,150 L-78,147 Z M-63,147 L-64,150 L-60,151 L-60,147 Z M69,148 Z M-77,150 Z M-57,150 L-59,151 L-58,155 L-55,154 L-56,150 Z M-89,154 L-89,156 L-85,157 L-85,154 Z M-53,154 L-54,158 L-51,158 Z M68,155 L69,159 L73,158 L72,155 Z M-89,157 Z M-75,158 L-73,160 L-73,158 Z " fill="#000000" transform="translate(577,551)"/>
<path d="M0,0 L2,0 L2,5 L9,6 L10,1 L20,3 L52,13 L60,20 L65,26 L62,27 L62,29 L68,28 L72,32 L77,31 L81,28 L85,29 L92,38 L92,40 L86,45 L85,47 L87,48 L81,50 L84,55 L90,55 L100,95 L100,106 L88,143 L83,143 L81,150 L84,152 L78,157 L84,164 L87,166 L85,171 L77,178 L71,176 L68,173 L62,173 L52,182 L44,186 L4,196 L4,192 L-3,192 L-3,196 L-12,194 L-31,188 L-44,184 L-53,178 L-61,170 L-64,168 L-70,169 L-75,173 L-80,172 L-86,164 L-85,160 L-79,155 L-80,150 L-82,146 L-76,146 L-76,142 L-74,142 L-76,138 L-82,140 L-84,141 L-90,119 L-94,102 L-94,92 L-82,52 L-80,51 L-74,50 L-75,45 L-81,43 L-85,37 L-84,32 L-76,24 L-71,27 L-64,33 L-62,29 L-53,21 L-48,16 L-43,11 Z M24,8 Z M28,9 Z M31,10 Z M-2,11 Z M4,11 Z M6,11 L5,13 L11,12 L11,11 Z M34,11 L37,13 L42,14 L38,11 Z M-9,12 Z M16,12 L16,14 L19,13 Z M22,13 Z M25,14 L25,16 L28,15 Z M42,14 Z M29,15 Z M33,16 L32,18 L35,18 L35,16 Z M46,16 L50,18 L49,16 Z M5,16 L0,17 L0,19 L-4,17 L-12,18 L-21,21 L-23,23 L-27,24 L-27,26 L-18,23 L-11,21 L-9,22 L-8,19 L-5,18 L-6,22 L3,21 L3,19 L7,20 L8,22 L16,22 L16,19 L19,20 L20,22 L17,23 L19,24 L23,24 L23,22 L26,22 L27,25 L25,26 L30,26 L34,24 L33,29 L41,28 L41,30 L39,32 L44,33 L44,36 L50,35 L50,38 L48,40 L53,40 L53,43 L57,45 L57,43 L60,43 L61,46 L57,48 L63,47 L62,52 L65,53 L65,57 L69,58 L72,55 L72,53 L68,53 L69,48 L66,48 L66,44 L63,44 L62,39 L60,39 L58,35 L54,35 L54,31 L51,30 L48,26 L44,27 L44,24 L36,25 L37,21 L30,22 L29,19 L22,19 L20,17 L12,17 L9,20 L9,16 Z M36,17 L36,19 L38,19 L38,17 Z M50,18 Z M40,19 L39,21 L42,21 L42,19 Z M52,19 L54,21 L54,19 Z M44,21 L44,24 L48,24 L48,22 Z M55,21 L58,25 L60,24 L57,21 Z M-7,22 Z M6,22 Z M-39,23 Z M47,25 Z M60,25 Z M-32,26 L-32,28 L-34,29 L-30,28 Z M-29,26 Z M51,26 L50,28 L54,29 L54,26 Z M-38,27 Z M-78,28 Z M-37,28 L-38,31 L-36,31 Z M-80,30 Z M-43,30 Z M56,30 Z M-81,31 Z M-42,31 L-42,33 L-44,34 L-40,33 Z M-40,31 Z M-51,32 Z M67,32 L67,34 L69,33 Z M-73,33 L-73,38 L-69,39 L-69,34 Z M-53,33 L-52,35 L-51,33 Z M-47,33 L-48,36 L-44,35 Z M60,34 L63,37 L63,34 Z M79,35 L79,38 L77,39 L80,40 L83,39 L84,36 Z M-50,36 L-53,39 L-49,38 L-48,36 Z M43,36 Z M47,40 Z M51,44 Z M-59,46 L-60,48 L-57,47 Z M-61,48 Z M55,48 Z M61,52 Z M-79,53 Z M58,53 Z M-20,54 Z M73,57 L69,58 L68,62 L72,61 L75,60 L75,57 Z M75,60 L76,62 Z M76,62 L72,64 L73,67 L78,65 L77,62 Z M77,68 L74,71 L79,70 L80,68 Z M80,73 L77,76 L81,75 Z M81,79 Z M-59,136 L-58,138 Z M-57,139 Z M-57,141 L-57,143 L-55,143 L-55,141 Z M-54,144 L-55,146 L-52,146 L-52,144 Z M-69,147 L-68,149 L-66,149 L-66,147 Z M-51,148 L-52,151 L-49,151 L-50,148 Z M-48,149 L-48,151 L-46,151 L-46,149 Z M70,151 L74,153 L73,151 Z M-46,152 L-45,156 L-42,155 L-43,152 Z M74,153 Z M-42,156 L-43,159 L-40,159 L-41,156 Z M-74,157 L-75,160 L-74,162 L-70,161 L-71,157 Z M-61,161 L-61,163 L-59,163 L-57,167 L-50,172 L-48,171 L-49,167 L-58,161 Z M-35,161 L-35,163 L-33,162 Z M73,161 L73,164 L75,166 L77,165 L76,161 Z M61,166 Z M-24,184 Z " fill="#000000" transform="translate(854,552)"/>
<path d="M0,0 L1,0 L1,12 L-1,12 L-1,4 Z " fill="#000000" transform="translate(969,564)"/>
<path d="M0,0 L7,1 L7,5 L-2,6 L-1,1 Z " fill="#000000" transform="translate(1075,572)"/>
<path d="M0,0 L104,1 L206,2 L221,2 L257,3 L257,10 L254,12 L252,21 L250,27 L248,27 L247,38 L244,43 L244,54 L243,61 L243,68 L241,68 L241,78 L240,79 L240,94 L240,97 L238,105 L239,110 L236,111 L237,115 L235,116 L236,120 L234,124 L235,128 L233,128 L233,132 L231,132 L231,137 L231,141 L230,153 L228,154 L218,149 L213,147 L212,145 L204,144 L192,144 L192,142 L178,142 L175,142 L171,140 L163,140 L149,137 L143,138 L125,138 L106,137 L103,135 L102,134 L92,137 L86,136 L80,137 L81,128 L80,118 L75,117 L74,107 L72,99 L68,91 L66,83 L65,71 L60,66 L60,62 L58,62 L56,59 L53,58 L53,56 L51,56 L50,52 L45,50 L44,45 L42,45 L41,41 L39,40 L40,38 L36,37 L29,26 L24,21 L23,18 L19,17 L11,10 L10,5 L5,5 L1,8 L-1,1 Z M60,5 Z M63,5 L67,6 Z M68,5 Z M71,5 L71,6 L77,6 L77,5 Z M78,5 L82,6 Z M86,5 Z M62,6 Z M83,6 Z M114,109 L115,112 L115,109 Z M230,131 Z " fill="#000000" transform="translate(183,583)"/>
<path d="M0,0 L22,0 L22,1 L11,3 L-6,2 L-6,1 Z " fill="#000000" transform="translate(1161,586)"/>
<path d="M0,0 L9,0 L9,129 L8,134 L7,134 L6,99 L7,65 L7,8 L6,4 L-6,3 L-2,1 Z " fill="#000000" transform="translate(1239,586)"/>
<path d="M0,0 L101,0 L101,1 L80,2 L35,2 L31,3 L17,2 L5,2 L0,1 Z " fill="#000000" transform="translate(1004,587)"/>
<path d="M0,0 L1,2 L-5,3 L-19,2 L-19,1 Z " fill="#000000" transform="translate(1126,586)"/>
<path d="M0,0 L46,0 L47,4 L46,7 L44,7 L43,14 L40,16 L39,25 L38,29 L36,30 L34,35 L33,39 L30,46 L30,50 L27,53 L25,60 L23,60 L24,68 L23,70 L21,70 L19,75 L21,75 L21,83 L17,88 L14,86 L12,88 L8,90 L9,95 L8,100 L6,105 L4,105 L6,112 L5,114 L0,114 L1,110 L2,109 L-3,108 L-2,113 L-6,115 L-5,122 L-3,123 L-5,124 L-3,136 L-1,140 L1,142 L-7,141 L-20,138 L-28,134 L-36,131 L-50,129 L-82,129 L-86,128 L-99,127 L-138,127 L-147,130 L-151,130 L-151,116 L-153,112 L-155,103 L-157,65 L-159,54 L-162,47 L-167,34 L-173,21 L-174,19 L-180,16 L-180,10 L-177,9 L-169,8 L-166,10 L-130,10 L-126,11 L-122,10 L-114,9 L-113,7 L-103,7 L-100,6 L-98,7 L-90,6 L-88,4 L-83,5 L-74,4 L-70,3 L-66,5 L-59,5 L-55,6 L-49,5 L-31,6 L-26,4 L-26,6 L-24,6 L-23,3 L-20,5 L-20,3 L-8,4 L2,4 L4,2 Z M16,1 Z M20,1 Z M26,47 Z M24,52 Z M21,64 Z M21,68 Z M17,82 L18,84 L19,82 Z M-4,137 Z " fill="#000000" transform="translate(1193,592)"/>
<path d="M0,0 L1,0 L1,16 L-1,13 Z " fill="#000000" transform="translate(447,600)"/>
<path d="M0,0 L2,1 L2,12 L0,13 Z " fill="#000000" transform="translate(977,636)"/>
<path d="M0,0 L1,0 L1,13 L0,13 L-1,4 Z " fill="#000000" transform="translate(447,647)"/>
<path d="M0,0 L49,1 L49,104 L48,106 L44,107 L7,107 L0,106 L-1,105 L-1,1 Z " fill="#000000" transform="translate(689,654)"/>
<path d="M0,0 L1,0 L1,64 L-1,67 L-1,15 Z " fill="#000000" transform="translate(968,654)"/>
<path d="M0,0 L1,0 L2,25 L1,64 L-1,64 L-2,38 L-1,1 Z " fill="#000000" transform="translate(978,665)"/>
<path d="M0,0 L1,0 L2,7 L2,31 L0,31 L-1,29 L-1,18 Z " fill="#000000" transform="translate(447,668)"/>
<path d="M0,0 L3,0 L3,52 L1,52 L0,17 Z " fill="#000000" transform="translate(446,703)"/>
<path d="M0,0 L2,1 L2,14 L1,25 L0,25 Z " fill="#000000" transform="translate(1246,723)"/>
<path d="M0,0 L1,0 L1,17 L0,17 Z " fill="#000000" transform="translate(967,725)"/>
<path d="M0,0 L2,0 L3,30 L9,29 L104,29 L107,28 L263,28 L277,29 L277,30 L240,31 L210,31 L49,32 L45,34 L46,63 L46,390 L45,507 L45,567 L44,584 L45,589 L44,600 L44,608 L42,609 L41,603 L40,579 L39,525 L39,453 L38,335 L39,140 L40,36 L41,32 L-1,32 L-3,30 L-1,30 L-2,23 L-2,14 L-1,11 Z " fill="#000000" transform="translate(977,739)"/>
<path d="M0,0 L1,0 L1,15 L-1,17 L-2,15 L-1,3 Z " fill="#000000" transform="translate(967,744)"/>
<path d="M0,0 L110,0 L206,2 L206,4 L110,3 L0,1 Z " fill="#000000" transform="translate(196,764)"/>
<path d="M0,0 L27,1 L36,2 L36,3 L-3,3 L-5,1 Z " fill="#000000" transform="translate(409,766)"/>
<path d="M0,0 L191,0 L188,4 L190,4 L191,134 L191,241 L192,342 L193,415 L193,447 L194,481 L195,526 L195,581 L194,582 L194,592 L197,597 L197,603 L193,602 L194,618 L185,620 L179,627 L177,627 L177,584 L150,584 L76,583 L32,582 L27,581 L27,580 L84,580 L142,581 L186,581 L185,564 L185,517 L187,516 L193,517 L192,491 L191,492 L191,497 L188,498 L187,508 L186,508 L185,499 L184,350 L184,294 L186,2 L147,2 L0,1 Z M191,483 L192,485 Z M191,486 Z M190,487 L191,489 Z M195,597 Z " fill="#000000" transform="translate(524,769)"/>
<path d="M0,0 L27,0 L27,1 L0,1 Z " fill="#000000" transform="translate(721,769)"/>
<path d="M0,0 L68,0 L66,2 L-5,2 L-5,1 Z " fill="#000000" transform="translate(761,769)"/>
<path d="M0,0 L1,0 L2,20 L2,147 L3,307 L4,383 L4,408 L5,499 L5,560 L4,570 L2,570 L2,572 L0,573 L-6,573 L-7,565 L-7,532 L-6,484 L-5,439 L-4,407 L-4,367 L-3,327 L-2,202 L-1,2 Z " fill="#000000" transform="translate(406,772)"/>
<path d="M0,0 L98,1 L182,2 L217,3 L216,6 L203,7 L186,7 L180,8 L167,10 L164,9 L164,11 L158,13 L174,15 L173,17 L171,17 L171,19 L174,19 L174,17 L178,18 L187,25 L201,34 L210,42 L215,43 L220,46 L225,45 L230,41 L235,46 L240,51 L238,55 L232,60 L231,62 L228,62 L234,73 L246,95 L248,99 L248,117 L246,149 L245,158 L239,169 L229,184 L227,187 L231,189 L240,195 L239,199 L232,208 L226,206 L222,204 L215,204 L213,208 L190,220 L162,233 L135,233 L104,230 L93,224 L76,213 L61,203 L55,200 L48,201 L45,203 L41,202 L35,194 L36,190 L44,183 L43,177 L34,158 L28,145 L28,114 L30,89 L32,82 L47,59 L46,52 L39,44 L40,39 L47,31 L49,31 L49,33 L53,35 L58,39 L62,37 L81,27 L97,19 L107,14 L110,11 L94,8 L89,7 L75,7 L71,6 L15,6 L13,7 L-1,8 L-4,7 L-6,1 Z M135,17 Z M126,18 Z M149,18 L150,20 L153,19 Z M117,19 Z M174,19 Z M176,20 Z M109,21 Z M131,21 L131,24 L136,23 L137,25 L139,24 L139,22 Z M144,21 L139,25 L144,24 L148,23 L149,26 L156,27 L155,23 L150,22 Z M179,21 Z M123,22 L124,24 L130,25 L126,22 Z M113,23 L117,26 L119,23 Z M168,23 L170,25 L175,26 L175,24 Z M111,24 L109,25 L105,26 L111,27 Z M160,25 L156,28 L159,29 L162,25 Z M164,25 Z M104,26 Z M165,26 L165,29 L169,29 L170,31 L174,32 L176,34 L180,34 L180,36 L185,37 L185,39 L189,41 L193,42 L194,45 L198,45 L199,48 L204,47 L200,43 L190,37 L188,37 L188,35 L178,32 L178,30 L168,26 Z M99,27 L99,29 L103,28 Z M103,27 Z M96,29 Z M93,30 L93,32 L96,32 L96,30 Z M188,32 Z M87,33 L87,35 L89,35 L89,33 Z M193,35 Z M82,37 Z M195,37 L198,40 L201,39 L199,37 Z M47,38 L46,39 L46,44 L51,46 L54,43 L53,39 L52,38 Z M63,39 L63,41 L65,41 L65,39 Z M77,41 Z M202,41 L203,43 Z M212,43 Z M213,44 L215,48 L217,48 L216,45 Z M206,45 L207,47 L208,45 Z M227,47 L225,51 L226,54 L230,55 L234,53 L233,47 Z M198,48 Z M205,48 L201,52 L205,55 L207,55 L207,57 L211,57 L212,61 L215,58 L212,55 L210,55 L209,52 L205,53 L206,48 Z M217,48 Z M210,49 Z M200,50 Z M213,52 L214,54 Z M215,59 Z M210,61 Z M216,62 L212,64 L215,67 L218,69 L219,71 L222,69 L221,66 L218,65 L218,62 Z M224,68 Z M223,72 L221,76 L225,79 L226,83 L228,80 L227,76 L225,75 Z M227,72 L228,75 L230,73 Z M219,73 Z M231,80 L233,82 L233,80 Z M226,83 L228,88 L231,85 Z M234,86 Z M229,91 Z M231,92 L232,95 L232,92 Z M244,99 L245,102 L247,100 Z M29,141 L30,145 L32,145 L31,141 Z M44,187 L43,188 L43,193 L44,194 L49,194 L51,192 L50,187 Z M227,192 L225,193 L224,197 L226,200 L231,200 L233,195 L231,192 Z M210,203 L208,207 L212,206 L213,203 Z M79,211 Z M101,224 L102,227 L107,226 L104,224 Z " fill="#000000" transform="translate(117,773)"/>
<path d="M0,0 L59,0 L61,5 L60,12 L58,12 L58,10 L54,9 L42,6 L32,5 L27,3 L26,5 L18,4 L16,5 L16,3 L2,3 L-2,3 Z M1,1 Z M26,2 Z " fill="#000000" transform="translate(337,776)"/>
<path d="M0,0 L13,1 L13,3 L3,4 L-1,5 L-3,1 Z " fill="#000000" transform="translate(419,778)"/>
<path d="M0,0 L5,0 L6,1 L5,15 L4,20 L2,19 L0,14 L0,11 L-5,9 L-12,5 L-16,3 L-15,1 Z " fill="#000000" transform="translate(1315,777)"/>
<path d="M0,0 L72,0 L68,2 L65,3 L61,3 L53,8 L50,9 L60,11 L78,16 L90,21 L89,23 L104,30 L109,31 L120,39 L124,43 L129,44 L137,37 L141,39 L146,45 L148,47 L141,54 L142,58 L145,68 L144,69 L151,83 L160,110 L160,118 L153,151 L149,170 L140,181 L138,185 L149,194 L147,199 L141,206 L135,204 L128,200 L122,201 L111,213 L107,214 L106,217 L101,218 L105,214 L101,213 L85,221 L66,226 L57,227 L38,227 L20,224 L5,219 L5,222 L12,226 L9,227 L-3,224 L-12,218 L-23,209 L-33,201 L-37,197 L-43,196 L-52,201 L-57,200 L-63,191 L-59,187 L-53,183 L-53,176 L-61,154 L-67,134 L-67,124 L-60,88 L-56,72 L-47,61 L-48,56 L-54,47 L-55,42 L-47,33 L-43,35 L-30,46 L-31,43 L-20,31 L-18,29 L-14,30 L-12,30 L-13,26 L-1,21 L7,19 L10,18 L14,16 L29,10 L30,8 L23,6 L14,3 L2,3 L0,2 Z M53,3 Z M34,12 Z M36,12 L40,13 Z M42,16 L42,18 L44,18 L44,16 Z M37,17 Z M49,17 Z M56,16 L54,18 L61,19 L60,17 Z M18,18 Z M30,18 Z M66,18 Z M13,19 L11,21 L18,20 L18,19 Z M81,19 L82,21 L84,20 Z M24,19 L21,21 L25,21 Z M71,20 Z M8,21 Z M40,21 L39,25 L44,24 L45,25 L53,25 L54,22 L57,25 L63,26 L72,28 L72,23 L66,25 L66,22 L61,22 L60,21 L52,21 L52,24 L48,24 L48,21 Z M76,21 Z M13,22 Z M35,21 L32,22 L27,23 L25,25 L23,25 L22,23 L18,25 L20,25 L21,28 L28,26 L32,25 L36,25 Z M82,23 Z M10,24 Z M76,24 L74,28 L72,29 L76,28 L77,24 Z M87,24 L87,26 L89,25 Z M6,25 Z M36,25 Z M80,26 L79,29 L77,31 L81,30 L85,27 Z M3,27 Z M15,25 L10,27 L13,28 L13,30 L17,28 Z M92,27 Z M7,28 L5,32 L7,33 L9,31 L9,28 Z M85,28 L86,32 L90,29 Z M17,29 Z M97,29 Z M3,30 Z M90,30 L90,34 L88,35 L92,34 L92,32 L95,31 Z M-6,31 L-7,33 L-4,32 Z M0,31 L-3,34 L-1,37 L2,34 L2,31 Z M83,32 Z M95,32 Z M102,32 Z M96,33 L94,37 L96,38 L98,33 Z M106,35 Z M-7,35 L-9,36 L-10,41 L-5,37 Z M101,36 L98,40 L104,42 L104,44 L108,45 L110,47 L113,48 L113,50 L110,51 L116,54 L117,56 L122,56 L121,61 L124,58 L122,54 L120,54 L120,51 L115,52 L116,46 L109,42 L107,42 L106,39 L102,39 L103,36 Z M-49,37 Z M96,38 Z M111,39 Z M-51,40 Z M-14,40 L-15,42 L-10,42 Z M-52,41 Z M114,41 L115,44 L120,43 L118,41 Z M-53,42 Z M-44,42 L-45,44 L-40,44 L-40,42 Z M-16,42 Z M-17,43 L-19,45 L-18,48 L-16,46 Z M120,43 Z M137,43 L136,46 L137,48 L140,48 L141,44 Z M-44,45 L-40,46 Z M119,46 Z M-23,49 Z M-27,53 L-27,56 L-25,53 Z M-29,56 L-29,59 Z M137,59 Z M133,60 L132,62 L135,63 L136,65 L134,66 L139,67 L137,62 L136,60 Z M122,61 L123,63 L125,63 L125,65 L130,65 L128,61 Z M139,61 Z M-34,62 Z M130,66 L131,69 L132,66 Z M129,69 Z M138,69 Z M130,71 L134,74 L136,73 L134,71 Z M138,71 Z M133,74 Z M136,79 L137,81 L139,80 Z M157,111 L157,116 L159,116 L159,111 Z M-44,177 Z M133,181 Z M-51,187 L-51,189 L-46,189 L-46,187 Z M-50,190 Z M136,191 L136,194 L137,196 L140,195 L140,191 Z M31,203 Z M116,203 L113,207 L117,205 L118,203 Z M35,205 Z M50,205 Z M38,206 Z M25,207 Z M-16,208 L-15,210 L-14,208 Z M28,208 Z M42,208 Z M30,209 Z M45,209 L46,211 L54,215 L61,217 L61,214 L56,214 L56,212 Z M58,209 Z M-13,210 Z M33,210 L34,212 L39,213 L38,211 Z M61,210 L62,212 L69,214 L66,211 Z M107,211 Z M61,212 L62,214 Z M106,212 Z M40,213 Z M71,214 Z M44,215 Z M66,215 Z M3,218 Z " fill="#000000" transform="translate(1127,779)"/>
<path d="M0,0 L15,0 L11,1 L10,3 L0,1 Z " fill="#000000" transform="translate(498,780)"/>
<path d="M0,0 L63,1 L63,4 L58,3 L58,5 L54,4 L54,6 L52,7 L52,9 L65,16 L69,19 L83,25 L94,32 L98,35 L98,37 L102,39 L107,44 L107,47 L114,48 L120,45 L126,41 L133,49 L133,51 L135,51 L133,55 L126,61 L124,65 L119,66 L120,70 L122,70 L123,67 L128,72 L131,77 L129,71 L130,69 L137,79 L139,87 L144,129 L143,134 L141,138 L144,138 L141,147 L129,175 L129,179 L140,186 L139,191 L133,199 L127,198 L124,196 L117,196 L99,209 L82,222 L79,224 L74,224 L70,228 L45,232 L27,233 L15,233 L-13,223 L-36,211 L-43,204 L-48,199 L-54,198 L-61,203 L-66,202 L-72,195 L-71,190 L-63,183 L-64,176 L-72,164 L-77,141 L-78,134 L-79,103 L-73,87 L-68,74 L-65,68 L-66,62 L-74,52 L-68,42 L-65,41 L-53,49 L-48,44 L-40,38 L-28,29 L-12,17 L-8,15 L25,11 L31,9 L20,8 L19,7 L6,7 L1,5 L-10,4 L-12,1 Z M55,14 L57,16 L63,17 L61,15 Z M40,15 L44,17 L50,17 L48,15 Z M22,17 Z M28,17 Z M32,17 L36,18 Z M51,17 L55,18 Z M-10,18 Z M41,18 Z M49,18 L50,20 Z M55,18 Z M59,18 Z M9,19 Z M60,19 Z M56,20 Z M25,20 L18,21 L19,25 L27,24 Z M35,20 L31,21 L30,24 L34,25 L34,22 L37,21 Z M38,21 L38,25 L45,24 L46,26 L53,26 L54,28 L58,27 L61,25 L59,24 L49,23 L47,24 L47,22 L43,21 Z M14,21 L8,23 L6,23 L6,27 L13,25 L15,24 Z M63,22 L63,24 L66,24 L66,22 Z M0,24 L-10,29 L-12,32 L-3,29 L1,27 L3,26 L2,24 Z M27,24 Z M70,24 L69,26 L71,26 Z M-10,25 L-11,27 L-8,26 Z M73,25 L72,27 L76,29 L77,27 Z M61,26 L61,30 L65,31 L65,28 L67,27 Z M69,28 L69,31 L66,32 L69,33 L73,35 L79,34 L79,38 L83,40 L84,42 L90,40 L90,38 L84,38 L84,35 L79,32 L74,32 L73,29 Z M80,30 L83,33 L85,33 L84,30 Z M-15,31 L-15,34 L-12,33 L-13,31 Z M86,33 L87,35 L88,33 Z M-20,34 L-19,36 L-17,35 Z M91,36 L92,38 L93,36 Z M-24,37 Z M-23,38 Z M94,38 L94,41 L97,41 L96,38 Z M-28,40 Z M90,40 L88,45 L93,46 L93,49 L96,50 L97,53 L100,54 L103,49 L98,49 L99,45 L95,44 L94,41 Z M100,43 L99,45 L101,45 Z M-32,44 Z M105,45 Z M104,47 L103,49 L106,48 Z M123,47 L120,50 L121,54 L122,55 L127,55 L129,50 L126,47 Z M-64,48 L-66,50 L-65,55 L-61,56 L-58,54 L-58,49 L-59,48 Z M-37,48 Z M-38,49 Z M-51,50 Z M-50,51 L-48,53 L-48,51 Z M108,51 L107,53 L109,53 Z M105,53 L101,55 L101,57 L107,55 Z M108,57 L104,61 L110,60 L109,57 Z M110,60 L110,63 L108,64 L109,66 L113,66 L114,68 L111,69 L114,70 L117,70 L115,65 L112,60 Z M117,70 L115,75 L119,74 L118,70 Z M123,74 Z M119,77 L118,79 L122,78 Z M126,79 Z M122,82 L121,84 L124,83 Z M128,84 Z M124,87 L124,90 L126,87 Z M126,93 Z M125,94 Z M127,99 Z M122,174 Z M127,182 L123,186 L125,190 L130,190 L132,188 L131,183 Z M-62,188 L-64,189 L-64,194 L-62,196 L-57,195 L-56,190 L-58,188 Z M-37,206 L-37,208 L-34,207 Z M-14,216 L-14,219 L-10,218 Z M-10,218 L-8,219 L-8,222 L-2,221 L-4,219 Z M-2,221 L1,223 L5,222 Z M-6,222 L-5,224 L-1,223 Z M5,223 L9,224 Z M0,224 Z M10,224 Z M16,225 Z M20,226 L24,227 Z M25,226 Z M32,226 L32,227 L40,227 L40,226 Z M41,226 Z M25,229 L25,230 L31,230 L31,229 Z " fill="#000000" transform="translate(526,779)"/>
<path d="M0,0 L19,0 L19,11 L16,11 L10,7 L3,5 L-8,2 L-8,1 Z " fill="#000000" transform="translate(683,780)"/>
<path d="M0,0 L44,0 L53,1 L53,3 L50,3 L49,5 L48,2 L46,2 L47,9 L68,15 L67,17 L79,21 L83,23 L84,26 L90,29 L91,27 L98,31 L98,33 L104,35 L109,39 L114,44 L117,47 L121,48 L132,41 L137,46 L141,51 L139,55 L133,60 L135,64 L137,70 L134,67 L132,64 L125,65 L127,67 L128,68 L133,72 L138,77 L142,86 L149,113 L148,121 L150,121 L149,131 L142,157 L137,175 L133,181 L133,184 L143,191 L139,198 L135,203 L131,202 L123,198 L117,198 L105,209 L103,209 L101,213 L93,220 L69,228 L52,232 L40,234 L33,234 L15,231 L-1,226 L-10,222 L-17,219 L-17,217 L-23,216 L-35,206 L-43,200 L-50,201 L-57,206 L-61,205 L-67,197 L-66,193 L-59,187 L-57,187 L-63,171 L-70,150 L-75,125 L-75,117 L-71,101 L-66,84 L-59,63 L-53,57 L-54,50 L-60,43 L-60,38 L-53,30 L-48,32 L-36,43 L-35,39 L-30,35 L-23,27 L-21,27 L-20,25 L-20,28 L-14,25 L-13,23 L-18,23 L-18,22 L1,17 L17,13 L28,9 L29,7 L21,6 L16,4 L16,2 L11,4 L11,2 L6,3 L0,1 Z M28,12 L29,14 L42,13 L42,12 Z M21,13 Z M49,13 L49,14 L55,14 L55,13 Z M36,15 L36,16 L41,16 L41,15 Z M62,15 Z M51,16 L55,17 Z M41,17 L41,19 L45,19 L45,17 Z M56,17 L56,18 L61,18 L61,17 Z M26,18 Z M28,18 L28,19 L33,19 L33,18 Z M38,18 Z M49,18 Z M19,19 Z M55,19 Z M59,19 L59,21 L63,22 L63,20 Z M-4,20 Z M69,20 L71,22 L76,23 L74,20 Z M13,20 L10,22 L14,22 Z M25,21 L22,23 L15,23 L15,27 L17,27 L17,25 L23,26 L24,23 L28,23 L29,26 L35,26 L37,22 L40,22 L41,26 L53,27 L58,23 L53,23 L49,25 L49,22 L36,21 L32,23 L30,21 Z M66,21 L65,23 L67,23 Z M6,23 Z M71,23 Z M2,24 Z M58,24 L57,28 L63,27 L64,30 L68,29 L69,32 L73,31 L73,34 L77,34 L79,37 L82,36 L83,38 L88,38 L88,40 L93,40 L94,44 L97,43 L98,46 L96,47 L99,48 L100,44 L102,43 L94,38 L87,35 L85,33 L82,33 L80,31 L76,31 L76,29 L71,29 L71,27 L61,24 Z M-1,25 Z M10,24 L6,26 L8,29 L13,28 L12,24 Z M76,25 Z M-5,26 L-5,28 L-3,27 Z M-2,26 Z M3,26 L-2,28 L1,31 L4,30 L5,26 Z M81,28 Z M-10,29 L-11,31 L-8,30 Z M-4,29 L-8,32 L-5,34 L-3,33 Z M86,30 Z M91,32 L92,34 Z M-17,33 L-16,35 L-15,33 Z M-12,33 L-14,34 L-13,38 L-10,35 L-10,33 Z M94,35 L96,38 L102,40 L98,35 Z M-19,37 L-24,41 L-24,43 L-20,42 L-20,40 L-16,40 L-16,38 Z M-51,38 L-51,40 L-46,41 L-47,38 Z M-25,39 Z M-50,41 L-50,43 L-48,43 L-48,41 Z M104,42 L104,44 L106,44 L106,42 Z M-29,46 Z M103,46 L103,48 L99,49 L104,52 L106,52 L106,55 L111,54 L109,59 L113,62 L115,65 L119,64 L117,60 L113,58 L112,53 L109,52 L109,50 L105,50 L105,46 Z M108,46 L110,48 L110,46 Z M-30,47 L-33,51 L-29,49 Z M130,48 L129,50 L134,50 L133,48 Z M111,49 L111,51 L114,52 L114,49 Z M-37,54 Z M-50,55 L-49,57 L-48,55 Z M-51,57 Z M-41,59 Z M119,65 L117,69 L119,71 L122,71 L123,75 L125,73 L125,70 L120,69 L121,65 Z M128,70 L127,72 L129,72 Z M130,75 L132,78 L132,75 Z M127,76 L124,78 L126,80 L129,79 Z M134,83 Z M129,84 L129,87 L131,86 Z M125,178 Z M127,179 Z M129,188 L129,190 L133,190 L133,188 Z M-56,191 L-56,193 L-52,194 L-52,191 Z M-4,222 Z M-1,223 L3,226 L10,227 L8,225 Z M20,226 Z M25,226 Z M50,226 L28,227 L28,228 L44,229 L44,230 L55,230 L55,227 L55,226 Z M61,227 Z M21,228 Z M57,228 Z M24,229 Z M28,229 L32,231 L32,229 Z M33,230 Z " fill="#000000" transform="translate(827,780)"/>
<path d="M0,0 L12,0 L12,8 L11,13 L2,7 L-5,3 L-5,1 Z " fill="#000000" transform="translate(998,780)"/>
<path d="M0,0 L10,1 L17,3 L13,4 L4,2 Z " fill="#000000" transform="translate(1208,795)"/>
<path d="M0,0 L7,1 L16,3 L13,5 L8,4 L0,1 Z " fill="#000000" transform="translate(905,799)"/>
<path d="M0,0 L9,3 L12,5 L7,6 L0,1 Z " fill="#000000" transform="translate(615,806)"/>
<path d="M0,0 L9,0 L5,2 L1,3 L-18,2 L-18,1 Z " fill="#000000" transform="translate(1182,1010)"/>
<path d="M0,0 L29,0 L38,3 L40,3 L40,6 L43,6 L43,4 L45,4 L45,7 L53,7 L53,4 L58,4 L60,8 L62,5 L64,5 L64,8 L72,7 L75,7 L78,7 L83,8 L86,7 L89,8 L90,4 L91,7 L100,7 L103,7 L110,7 L111,5 L124,5 L125,4 L135,4 L135,140 L94,140 L10,139 L8,132 L8,125 L6,125 L7,122 L9,122 L8,114 L9,111 L7,111 L8,106 L8,98 L6,85 L5,48 L4,30 L2,13 Z M3,1 Z M11,1 L15,4 L24,4 L25,2 Z M26,2 L27,4 L29,4 L29,2 Z M32,4 Z M54,6 Z " fill="#000000" transform="translate(116,1032)"/>
<path d="M0,0 L22,0 L19,3 L30,3 L35,1 L73,1 L73,101 L72,137 L71,138 L-53,137 L-54,91 L-54,54 L-56,34 L-59,17 L-62,4 L-61,1 L-59,2 L-59,4 L-54,5 L-50,5 L-47,5 L-43,4 L-42,7 L-40,7 L-39,4 L-35,5 L-32,5 L-28,6 L-26,5 L-26,8 L-22,7 L-21,5 L-16,6 L-14,5 L-11,8 L-2,6 L-2,8 L8,6 L10,2 L0,1 Z M12,1 Z M14,1 Z M35,2 Z M45,2 Z M13,3 Z M14,4 Z M21,5 Z M-22,7 Z " fill="#000000" transform="translate(323,1035)"/>
<path d="M0,0 L18,0 L18,1 L8,2 L6,1 L5,3 L0,2 Z " fill="#000000" transform="translate(419,1037)"/>
<path d="M0,0 L20,0 L21,1 L22,24 L22,57 L21,112 L20,136 L19,141 L-55,141 L-120,140 L-121,124 L-121,13 L-120,4 L-117,5 L-116,7 L-110,8 L-110,10 L-102,9 L-98,11 L-94,11 L-94,9 L-89,11 L-89,14 L-87,14 L-87,11 L-84,10 L-76,13 L-74,14 L-70,10 L-69,12 L-65,11 L-64,9 L-63,11 L-61,9 L-57,10 L-47,9 L-44,6 L-41,7 L-36,6 L-34,7 L-33,5 L-27,5 L-25,4 L-21,5 L-20,3 L-17,1 Z M-12,2 Z M-29,6 Z M-28,7 Z M-105,10 Z " fill="#000000" transform="translate(1296,1038)"/>
<path d="M0,0 L3,2 L4,1 L13,0 L41,0 L42,139 L41,140 L15,140 L-66,139 L-92,138 L-90,136 L-93,134 L-93,116 L-91,116 L-93,107 L-93,98 L-94,93 L-94,44 L-96,15 L-95,11 L-97,10 L-97,2 L-84,3 L-83,6 L-80,6 L-79,4 L-68,4 L-63,8 L-59,6 L-54,6 L-52,6 L-48,5 L-47,7 L-42,5 L-40,3 L-34,7 L-33,3 L-26,3 L-26,6 L-23,4 L-19,4 L-16,3 L-12,2 L-9,3 L0,2 Z M-33,4 Z M-30,5 Z M-70,5 L-72,7 L-69,7 Z " fill="#000000" transform="translate(660,1039)"/>
<path d="M0,0 L5,0 L5,126 L4,138 L-132,138 L-132,129 L-133,121 L-134,91 L-134,5 L-133,3 L-122,3 L-118,3 L-110,5 L-110,7 L-107,7 L-106,3 L-104,7 L-101,6 L-101,8 L-98,8 L-98,5 L-96,5 L-96,7 L-87,7 L-87,9 L-81,8 L-78,9 L-78,6 L-74,7 L-75,9 L-71,8 L-65,7 L-64,10 L-60,7 L-52,8 L-44,6 L-41,7 L-35,6 L-32,6 L-28,7 L-28,5 L-26,5 L-25,3 L-22,3 L-3,1 Z M-33,7 Z M-88,9 Z M-76,9 Z " fill="#000000" transform="translate(857,1040)"/>
<path d="M0,0 L7,0 L8,1 L9,70 L9,136 L7,141 L-121,140 L-129,139 L-129,39 L-128,3 L-120,4 L-115,7 L-113,5 L-107,6 L-103,9 L-103,11 L-101,11 L-102,7 L-98,9 L-98,12 L-96,12 L-95,9 L-89,9 L-88,5 L-87,9 L-82,7 L-77,9 L-78,6 L-73,5 L-72,9 L-68,9 L-69,6 L-66,7 L-66,9 L-64,9 L-63,6 L-62,8 L-60,8 L-60,6 L-53,7 L-52,3 L-49,5 L-46,3 L-40,3 L-41,1 Z M-31,2 Z M-24,2 L-20,3 Z M-114,7 Z M-108,8 Z " fill="#000000" transform="translate(1000,1039)"/>
<path d="M0,0 L41,0 L41,1 L0,1 Z " fill="#000000" transform="translate(1044,1040)"/>
<path d="M0,0 L17,0 L17,1 L0,1 Z " fill="#000000" transform="translate(1086,1040)"/>
<path d="M0,0 L3,1 L7,0 L8,44 L8,138 L-113,138 L-122,137 L-121,135 L-123,130 L-123,115 L-124,110 L-122,110 L-123,108 L-125,72 L-124,64 L-125,60 L-125,32 L-127,8 L-127,2 L-95,3 L-93,4 L-93,6 L-88,5 L-83,7 L-80,6 L-80,8 L-76,6 L-72,7 L-70,8 L-70,6 L-68,6 L-69,10 L-64,7 L-56,6 L-55,8 L-54,9 L-53,4 L-48,8 L-47,7 L-46,4 L-43,5 L-41,8 L-37,7 L-35,8 L-34,6 L-31,6 L-27,6 L-26,3 L-26,5 L-16,3 L-14,3 L-10,2 L0,2 Z M-99,4 Z M-89,7 Z " fill="#000000" transform="translate(546,1039)"/>
<path d="M0,0 L10,0 L10,1 L5,2 L10,3 L12,7 L17,7 L18,5 L21,7 L21,10 L17,11 L26,11 L29,11 L32,11 L32,9 L35,9 L36,15 L38,15 L38,13 L41,13 L42,10 L44,13 L48,12 L50,13 L53,12 L53,14 L58,15 L58,13 L66,13 L73,11 L76,11 L80,13 L81,11 L87,10 L96,8 L100,8 L102,6 L115,4 L124,2 L131,0 L134,1 L134,138 L115,139 L43,140 L-3,140 L-3,34 L-2,9 L-1,3 Z M2,1 L1,3 L3,3 Z M3,3 Z M4,6 L7,8 L8,6 Z M18,7 Z M25,12 Z " fill="#000000" transform="translate(1032,1040)"/>
<path d="M0,0 L15,1 L19,1 L23,2 L25,3 L29,3 L29,1 L41,1 L43,3 L51,3 L51,1 L101,1 L101,3 L102,1 L106,2 L117,2 L120,1 L136,1 L136,19 L134,68 L134,69 L134,111 L133,145 L131,146 L115,141 L100,138 L95,136 L97,132 L85,132 L81,131 L80,128 L76,127 L75,125 L71,124 L71,122 L67,123 L68,117 L61,119 L56,117 L56,115 L51,114 L51,112 L49,112 L48,115 L43,114 L39,115 L37,110 L36,115 L24,114 L23,119 L19,123 L17,119 L16,111 L14,104 L13,97 L14,93 L14,80 L13,77 L11,77 L11,66 L10,64 L7,42 L2,12 L0,4 Z M12,2 Z M19,2 Z M38,2 Z M70,2 Z M80,2 Z M94,2 Z M97,43 Z M117,43 Z M110,44 Z M116,45 L115,50 L116,53 L115,56 L113,52 L109,50 L107,55 L108,58 L114,60 L116,62 L114,62 L116,67 L124,65 L124,60 L126,60 L125,65 L129,64 L129,55 L127,53 L125,54 L125,51 L123,51 L122,46 L120,46 L121,50 L118,47 Z M99,46 Z M130,46 L131,52 L133,48 L131,48 Z M94,49 L91,55 L93,57 L95,55 L95,52 L97,51 L95,51 Z M96,49 L97,51 L99,50 Z M100,49 L99,53 L101,52 Z M88,50 L88,52 L90,51 Z M113,50 Z M102,51 Z M107,51 Z M97,52 L98,55 Z M104,52 L104,55 L106,55 L106,52 Z M115,52 Z M130,52 Z M100,53 L101,59 L103,58 L101,53 Z M94,56 L93,58 L96,58 L96,56 Z M130,57 L131,59 Z M105,58 Z M109,58 L110,60 Z M132,58 Z M99,59 Z M104,59 L101,60 L101,62 L105,61 Z M130,61 Z M132,65 Z M111,67 Z M122,67 Z M115,69 Z M69,120 Z M75,122 Z M82,128 Z " fill="#000000" transform="translate(115,1180)"/>
<path d="M0,0 L5,2 L10,0 L28,2 L50,3 L53,2 L57,3 L61,1 L61,0 L133,0 L133,56 L132,77 L132,92 L131,126 L130,143 L128,147 L127,145 L106,142 L80,138 L77,136 L84,135 L85,134 L68,132 L70,128 L66,128 L61,128 L58,126 L56,127 L56,124 L53,125 L47,122 L46,125 L46,118 L42,117 L39,113 L39,116 L35,118 L31,123 L30,119 L29,113 L27,113 L26,115 L19,113 L12,114 L9,112 L8,102 L8,71 L9,67 L7,57 L6,44 L3,27 L2,12 Z M47,115 L48,118 L48,115 Z M50,117 Z M56,123 Z M61,124 Z M71,129 Z M99,134 Z " fill="#000000" transform="translate(261,1182)"/>
<path d="M0,0 L127,0 L137,1 L137,144 L134,145 L128,143 L110,140 L101,138 L92,136 L92,133 L101,132 L88,130 L76,125 L67,122 L58,119 L55,119 L55,117 L45,118 L44,115 L38,116 L34,114 L29,113 L24,114 L19,113 L14,121 L12,117 L10,107 L9,99 L8,95 L7,86 L7,59 L6,53 L5,36 Z M105,41 Z M104,42 L105,44 Z M103,44 Z M113,54 L112,57 L115,56 Z M47,114 Z M106,132 Z " fill="#000000" transform="translate(418,1186)"/>
<path d="M0,0 L90,0 L137,1 L138,8 L138,145 L137,147 L131,146 L112,143 L81,137 L78,137 L75,136 L75,134 L84,133 L81,132 L73,131 L69,129 L65,127 L60,125 L55,124 L51,123 L51,120 L47,119 L47,121 L44,120 L44,118 L39,119 L34,118 L33,115 L30,116 L30,114 L26,115 L24,114 L24,116 L16,115 L15,117 L9,117 L6,109 L5,97 L4,82 L4,56 L1,23 L1,12 Z M12,112 Z M45,117 Z M52,120 L53,122 Z M61,124 Z " fill="#000000" transform="translate(564,1187)"/>
<path d="M0,0 L137,1 L136,53 L136,54 L136,143 L134,145 L121,142 L103,139 L92,136 L92,134 L100,133 L98,132 L85,131 L81,129 L73,125 L67,123 L67,121 L62,122 L60,120 L56,120 L55,118 L52,118 L52,116 L49,117 L47,115 L42,116 L38,116 L35,115 L34,113 L33,115 L31,115 L31,112 L24,114 L20,113 L14,111 L4,110 L2,88 L1,47 L0,19 L-1,4 Z M88,28 L88,30 L91,29 Z M76,29 L75,30 L75,36 L78,37 L77,29 Z M83,30 L84,34 L86,33 Z M87,30 Z M91,30 L92,32 Z M82,34 Z M79,34 L79,46 L82,45 L82,50 L80,51 L83,54 L88,52 L87,58 L89,58 L89,56 L91,56 L91,61 L93,57 L92,53 L94,54 L95,58 L96,55 L99,60 L100,58 L106,56 L109,54 L108,49 L107,45 L102,43 L102,45 L100,45 L100,42 L98,42 L95,37 L93,36 L93,44 L91,43 L92,40 L90,37 L92,34 L84,35 L84,38 L81,39 L81,34 Z M107,36 Z M107,38 Z M106,40 Z M74,42 L75,46 L75,42 Z M101,42 Z M106,43 Z M71,44 Z M112,45 L114,56 L116,56 L117,58 L118,54 L121,53 L120,50 L123,51 L123,46 L122,48 L119,48 L116,51 L116,46 Z M116,45 Z M134,45 Z M68,46 L67,49 L70,50 L71,47 Z M32,47 L32,49 L34,49 L34,47 Z M127,47 L129,50 L129,47 Z M78,48 Z M76,49 Z M110,49 L110,51 L112,51 L112,49 Z M11,53 Z M110,53 Z M122,53 L123,60 L126,56 L128,57 L128,55 L130,54 L128,53 L124,53 Z M102,58 Z M113,58 L115,60 L115,58 Z M119,58 Z M103,59 Z M116,59 Z M37,112 Z M36,113 Z M38,113 Z M54,114 L53,116 L55,116 Z " fill="#000000" transform="translate(725,1187)"/>
<path d="M0,0 L136,0 L137,28 L138,81 L138,143 L137,145 L121,143 L95,139 L87,138 L78,136 L78,134 L85,132 L69,131 L62,129 L53,126 L50,126 L49,122 L44,122 L42,117 L36,119 L29,116 L16,114 L7,114 L1,112 L-1,107 L-1,8 Z M88,132 Z " fill="#000000" transform="translate(872,1188)"/>
<path d="M0,0 L7,0 L7,2 L18,2 L21,2 L39,2 L22,1 L22,0 L81,0 L85,2 L85,0 L134,0 L135,2 L135,63 L134,79 L134,123 L133,138 L131,138 L131,145 L129,146 L98,141 L77,139 L67,137 L67,136 L78,135 L77,134 L63,133 L42,128 L41,125 L36,125 L34,126 L33,124 L30,125 L30,122 L25,121 L21,119 L15,118 L15,116 L9,114 L1,112 L-3,113 L-4,110 L-4,4 L0,1 Z M3,1 Z M48,1 Z M64,1 Z M66,1 L66,4 L72,3 L71,1 Z M62,2 Z M73,2 Z M76,2 L76,4 L78,3 Z M89,2 Z M42,3 Z M31,123 Z M93,134 L93,135 L105,135 L105,134 Z " fill="#000000" transform="translate(1180,1188)"/>
<path d="M0,0 L22,0 L22,1 L0,1 Z " fill="#000000" transform="translate(1082,1189)"/>
<path d="M0,0 L15,0 L15,57 L14,129 L14,146 L3,144 L-18,140 L-26,139 L-38,137 L-35,135 L-36,134 L-50,132 L-55,130 L-59,126 L-61,129 L-61,126 L-67,125 L-70,123 L-70,121 L-72,121 L-73,123 L-73,121 L-76,121 L-77,123 L-82,118 L-86,117 L-86,115 L-88,115 L-90,117 L-91,115 L-96,115 L-98,113 L-106,112 L-110,113 L-113,112 L-115,113 L-115,111 L-118,111 L-120,115 L-122,110 L-122,70 L-121,62 L-119,61 L-118,63 L-118,56 L-120,56 L-121,51 L-122,38 L-122,4 L-121,2 L-84,2 L-83,2 L-79,2 L-79,4 L-68,3 L-60,4 L-55,3 L-42,5 L-42,3 L-32,2 L-32,1 L-14,1 L-17,2 L-16,3 Z M-19,2 Z M-109,3 Z M-106,3 L-102,4 Z M-100,3 Z M-81,3 Z M-38,4 Z M-74,30 Z M-68,32 L-67,34 Z M-60,33 L-59,36 L-59,33 Z M-73,34 Z M-75,35 Z M-70,35 Z M-45,35 Z M-76,36 L-79,40 L-79,46 L-83,45 L-83,47 L-85,47 L-84,51 L-83,54 L-85,55 L-83,55 L-83,59 L-80,60 L-79,65 L-76,66 L-76,64 L-74,64 L-75,59 L-73,59 L-70,63 L-67,64 L-66,69 L-60,71 L-57,73 L-56,70 L-54,70 L-53,73 L-51,73 L-50,69 L-46,69 L-46,71 L-48,72 L-44,74 L-40,72 L-41,66 L-35,68 L-34,71 L-31,68 L-32,67 L-30,66 L-29,69 L-26,68 L-25,63 L-26,60 L-24,59 L-23,58 L-21,61 L-21,55 L-25,53 L-25,51 L-31,51 L-30,46 L-32,47 L-32,49 L-39,47 L-40,41 L-48,41 L-51,41 L-54,44 L-56,42 L-58,43 L-58,41 L-63,40 L-64,37 L-68,38 L-72,36 L-72,38 L-75,38 Z M-69,36 Z M-61,36 L-60,40 L-59,38 Z M-51,36 L-50,41 L-48,41 L-47,38 L-49,38 L-49,36 Z M-56,37 L-58,41 L-55,41 Z M-45,38 Z M-46,40 Z M-35,45 L-34,47 Z M-86,46 Z M-93,48 L-94,50 L-92,50 Z M-90,49 L-89,51 Z M-119,51 L-118,54 Z M-94,52 L-95,55 L-92,54 L-92,52 Z M-88,54 Z M-115,55 Z M-86,57 Z M-112,58 L-112,61 L-110,61 L-110,58 Z M-86,59 L-85,64 L-83,62 Z M-83,60 Z M-13,60 Z M-115,61 L-114,63 L-112,62 Z M-97,61 L-95,63 L-95,61 Z M-91,61 Z M-20,61 L-21,63 L-19,63 Z M-102,62 Z M-72,65 L-73,67 L-71,67 Z M-22,65 Z M0,65 L1,67 L2,65 Z M-25,67 Z M-20,67 Z M-17,67 Z M-23,68 Z M-18,68 Z M-62,71 L-61,73 Z M-57,73 L-56,75 Z M-110,78 Z M-55,103 Z M-96,104 Z M5,110 L6,112 Z M7,112 Z M4,113 L5,116 L8,116 L7,113 Z M-78,118 Z M0,118 L1,122 L3,121 L2,118 Z M5,118 L8,120 L8,118 Z M-73,119 Z M-77,120 Z M3,120 Z M-69,122 Z M5,124 L4,128 L4,131 L3,134 L0,135 L9,136 L10,132 L7,124 Z M-28,134 Z " fill="#000000" transform="translate(1151,1188)"/>
<path d="M0,0 L3,2 L3,9 L-1,8 L-3,4 L1,5 L-1,1 Z " fill="#000000" transform="translate(235,1231)"/>
<path d="M0,0 L27,0 L45,1 L43,3 L2,3 L0,2 Z " fill="#000000" transform="translate(139,1341)"/>
<path d="M0,0 L24,0 L24,1 L0,1 Z " fill="#000000" transform="translate(186,1342)"/>
<path d="M0,0 L51,0 L85,1 L167,3 L182,4 L180,6 L175,8 L168,8 L168,6 L159,6 L154,7 L148,6 L108,6 L106,5 L94,5 L89,6 L88,5 L59,5 L35,3 L21,3 L11,2 L0,1 Z " fill="#000000" transform="translate(215,1343)"/>
<path d="M0,0 L100,0 L125,1 L125,2 L105,3 L75,4 L53,4 L42,3 L31,3 L30,4 L11,3 L0,1 Z " fill="#000000" transform="translate(412,1348)"/>
<path d="M0,0 L100,1 L136,2 L136,3 L121,4 L24,3 L-5,3 L-15,2 L-15,1 Z " fill="#000000" transform="translate(740,1348)"/>
<path d="M0,0 L49,0 L45,2 L-3,2 Z " fill="#000000" transform="translate(879,1350)"/>
<path d="M0,0 L40,0 L43,2 L-2,2 Z " fill="#000000" transform="translate(952,1350)"/>
<path d="M0,0 L136,0 L144,1 L143,3 L133,3 L125,2 L106,2 L101,3 L88,3 L84,4 L78,3 L36,3 L2,4 L-38,3 L-35,1 L-17,1 Z " fill="#000000" transform="translate(1066,1350)"/>
<path d="M0,0 L5,1 L5,6 L1,5 L-2,6 L-1,1 Z " fill="#000000" transform="translate(206,1354)"/>
<path d="M0,0 L20,0 L93,2 L139,4 L160,4 L161,8 L159,14 L158,16 L157,39 L156,42 L137,40 L117,39 L83,39 L80,38 L8,36 L-16,35 L-16,28 L-17,21 L-16,14 L-15,13 L-9,13 L-7,8 L-2,1 Z M44,2 Z M45,3 Z " fill="#000000" transform="translate(227,1354)"/>
<path d="M0,0 L24,0 L98,2 L166,3 L180,4 L179,34 L178,41 L174,41 L155,39 L134,38 L88,38 L84,38 L69,37 L68,34 L56,36 L55,37 L26,37 L4,35 L2,33 L1,5 Z M88,35 Z M100,36 Z " fill="#000000" transform="translate(454,1360)"/>
<path d="M0,0 L94,0 L181,1 L183,11 L187,12 L183,13 L183,23 L185,25 L187,26 L187,39 L184,38 L183,36 L181,42 L164,39 L77,38 L-2,38 L-2,9 L-1,1 Z M182,32 Z " fill="#000000" transform="translate(786,1362)"/>
<path d="M0,0 L42,0 L42,7 L41,10 L45,11 L41,12 L40,31 L40,44 L35,43 L24,40 L12,39 L-143,39 L-144,37 L-144,17 L-145,3 L-139,1 L-78,1 Z " fill="#000000" transform="translate(1178,1361)"/>
<path d="M0,0 L4,2 L3,6 L6,17 L5,20 L1,16 L0,12 L-2,12 L2,24 L6,29 L9,32 L-12,28 L-11,22 L-6,11 L-7,4 Z " fill="#000000" transform="translate(714,1389)"/>
<path d="M0,0 L10,1 L10,2 L-3,2 Z " fill="#000000" transform="translate(1264,1414)"/>
</svg>
