<svg version="1.2" xmlns="http://www.w3.org/2000/svg" viewBox="0 0 1950 844" width="1950" height="844"><style>.a{stroke:#000;stroke-miterlimit:10;stroke-width:8.5}.b{fill:#971313;stroke:#000;stroke-miterlimit:10;stroke-width:8.5}</style><path fill-rule="evenodd" class="a" d="m37.8 480.2c183.5 7.4 358.1-17.8 587.5-10.9 326.8 9.8 657 4 906 18.7 213.4 12.6 256.4-3.3 306.2 0.1 33.9 2.3 47.9-5.7 40.9-14.6-8.8-11.1-150.4-7.9-214.8-6.7-180.4 3.6-131.1 5.2-225.6-1.9-282.9-21.5-281 9-789.4-21.4-112.8-6.8-604.3 24.7-605.8 25.5-7.2 3.7-10.2 11-5 11.2z"/><path fill-rule="evenodd" class="a" d="m6.6 473l519.3-13 1351.6 21.9 57.7 29.6-1.3 325.2-1932.6 7.3 11.7-61.8z"/><path fill-rule="evenodd" class="a" d="m232.1 98.5v388.8l-149.8 0.5v-388.7z"/><path fill-rule="evenodd" class="a" d="m345.8 269.7v242.8l-181.7 0.7v-242.8z"/><path fill-rule="evenodd" class="b" d="m2.7 317.3c26.9 4.3 348.5 140.5 304.4 333.2-44 192.7-117.6 128.8-164.3 81.6-29.5-29.8-44-58.6-11.8-94.2 32.2-35.6 55.1-56.8 65.3-27 10.3 29.7 0.5 74.4-5 70.3-5.5-4-27.5-11.8-35.6 11.3-8.1 23.2 36.3 57.3 72.7 43.8 36.4-13.5 33.6-153.5-5.2-188.7-38.7-35.1-227.1-109.9-255.2-115.1-21.5-4.1 11.3-119 34.7-115.2z"/><path fill-rule="evenodd" class="a" d="m401.3 232.1l201.4-221.6 166.6 79.5-139.2 34.9 29.9 97.9z"/><path fill-rule="evenodd" class="a" d="m1144.6 103.6l-156.8-81.4-200.9 150.9 153.1 217.5 140.2-93-94.8-98.9z"/><path fill-rule="evenodd" class="a" d="m1188.7 51.5l22.2 319.2 331.7-166-192.1-116.5z"/><path fill-rule="evenodd" class="a" d="m1563.7 50.2l47.3 361.8 330-41-89.8-118.5 48.6-60.9-47.9-40.2 89.1-144.4z"/></svg>