<svg version="1.2" xmlns="http://www.w3.org/2000/svg" viewBox="0 0 9750 1080" width="9750" height="1080"><style>.a{stroke:#000;stroke-miterlimit:10;stroke-width:8.5}.b{fill:#971313;stroke:#000;stroke-miterlimit:10;stroke-width:8.5}</style><path fill-rule="evenodd" class="a" d="m339.2 1022.6c904.5 10.1 1764.8-24.1 2894.8-14.7 1610.5 13.3 3237.3 5.4 4464.1 25.4 1051.6 17.1 1263.7-4.5 1509.1 0.1 166.8 3.2 235.9-7.7 201.1-19.9-42.9-15-741-10.7-1058.1-9-889.1 4.8-646.1 7-1111.4-2.7-1394.2-29.2-1384.5 12.3-3889.6-29.1-556.1-9.2-2977.6 33.6-2985.1 34.7-35.4 5-50.3 15-24.9 15.2z"/><path fill-rule="evenodd" class="a" d="m1296.6 131.7v529.3l-737.8 0.8v-529.4z"/><path fill-rule="evenodd" class="a" d="m1856.9 364.8v330.6l-895 0.9v-330.6z"/><path fill-rule="evenodd" class="b" d="m166.4 429.5c132.5 5.9 1717.3 191.4 1500.1 453.9-217.1 262.4-579.6 175.4-809.9 111-144.9-40.5-216.6-79.8-58.1-128.3 158.6-48.4 271.7-77.3 322.1-36.8 50.4 40.6 2.1 101.4-25 95.9-27.1-5.6-135.3-16.1-175.1 15.4-39.9 31.5 178.6 78 358 59.6 179.5-18.4 165.4-209-25.4-256.9-190.8-48-1119.2-149.7-1257.7-156.9-105.8-5.5 55.6-162 171-156.9z"/><path fill-rule="evenodd" class="a" d="m2130.4 313.5l992.3-301.7 820.9 108.3-685.5 47.4 147.3 133.4z"/><path fill-rule="evenodd" class="a" d="m5792.7 138.6l-772.5-110.9-989.9 205.5 754.5 296.3 690.7-126.7-466.9-134.7z"/><path fill-rule="evenodd" class="a" d="m6010.1 67.6l109.7 434.7 1634.3-226.1-946.6-158.6z"/><path fill-rule="evenodd" class="a" d="m7858.1 65.8l232.7 492.8 1626.2-55.9-442.5-161.3 239.6-83.1-236.2-54.7 439.1-196.6z"/></svg>